<?xml version="1.0" standalone="no"?><!DOCTYPE svg PUBLIC "-//W3C//DTD SVG 1.1//EN" "http://www.w3.org/Graphics/SVG/1.1/DTD/svg11.dtd"><svg t="1585983457775" class="icon" viewBox="0 0 1024 1024" version="1.1" xmlns="http://www.w3.org/2000/svg" p-id="3037" xmlns:xlink="http://www.w3.org/1999/xlink" width="200" height="200"><defs><style type="text/css"></style></defs><path d="M1007.659574 589.518979c-9.024272 0-16.340426 7.316153-16.340426 16.340426l0 49.021277L32.680851 654.880681l0-49.021277c0-9.024272-7.316153-16.340426-16.340426-16.340426s-16.340426 7.316153-16.340426 16.340426l0 399.004868c0 9.024272 7.316153 16.340426 16.340426 16.340426l991.319149 0c9.024272 0 16.340426-7.316153 16.340426-16.340426L1024 605.859404C1024 596.835132 1016.683847 589.518979 1007.659574 589.518979zM991.319149 720.242383 147.06383 720.242383c-9.024272 0-16.340426 7.316153-16.340426 16.340426s7.316153 16.340426 16.340426 16.340426L991.319149 752.923234l0 235.600613L32.680851 988.523847 32.680851 752.923234l49.021277 0c9.024272 0 16.340426-7.316153 16.340426-16.340426s-7.316153-16.340426-16.340426-16.340426L32.680851 720.242383l0-32.680851 958.638298 0L991.319149 720.242383z" p-id="3038"></path><path d="M412.388766 618.519966c3.034962 2.477209 6.688681 3.682043 10.322791 3.682043 4.738723 0 9.43823-2.050179 12.667098-6.00674l181.169566-221.93566c5.706077-6.989345 4.666826-17.283813-2.324698-22.992068-6.989345-5.706077-17.283813-4.666826-22.992068 2.324698l-181.169566 221.93566C404.357991 602.517243 405.397243 612.811711 412.388766 618.519966z" p-id="3039"></path><path d="M492.855557 595.527898c-5.706077 6.989345-4.666826 17.283813 2.324698 22.992068 3.034962 2.477209 6.688681 3.682043 10.322791 3.682043 4.738723 0 9.43823-2.050179 12.667098-6.00674 0 0 178.626996-218.824443 181.136885-221.896443 0.008715-0.013072 0.019609-0.023966 0.030502-0.037038 1.00657-1.233157 2.087217-2.427098 3.207081-3.54914 18.203234-18.201055 47.822979-18.201055 66.026213 0l45.053821 45.053821c18.203234 18.203234 18.203234 47.822979 0 66.028391-1.122043 1.122043-2.315983 2.200511-3.544783 3.204902l-108.051609 88.203438c-6.991523 5.708255-8.032953 16.000545-2.324698 22.992068 3.231047 3.956562 7.930553 6.00674 12.667098 6.00674 3.631932 0 7.290009-1.204834 10.322791-3.682043l108.053787-88.205617c2.078502-1.697226 4.091643-3.518638 5.984953-5.411949 26.872374-26.874553 30.39537-68.377055 10.595132-99.101413 44.252051-39.325957 100.633055-60.834315 160.330077-60.834315 9.024272 0 16.340426-7.316153 16.340426-16.340426s-7.316153-16.340426-16.340426-16.340426c-66.128613 0-128.68194 23.242621-178.34594 65.847557l137.784647-137.782468c6.381481-6.381481 6.381481-16.72606 0-23.10754-6.381481-6.381481-16.728238-6.381481-23.10754 0l-137.773753 137.773753c42.600579-49.664 65.838843-112.210791 65.838843-178.335047 0-9.024272-7.316153-16.340426-16.340426-16.340426s-16.340426 7.316153-16.340426 16.340426c0 59.694843-21.508357 116.078026-60.834315 160.330077-30.724357-19.802417-72.229038-16.279421-99.101413 10.592953-1.893311 1.893311-3.714723 3.906451-5.411949 5.984953l0.041396 0.032681c-0.729872 0.814843-1.411813 1.649294-2.076323 2.461957L492.855557 595.527898z" p-id="3040"></path><path d="M81.652017 622.19983c9.024272 0 16.340426-7.316153 16.340426-16.340426L97.992443 209.88514l231.968681 0L329.961123 605.859404c0 9.024272 7.316153 16.340426 16.340426 16.340426s16.340426-7.316153 16.340426-16.340426L362.641974 198.77583l61.466145-86.146723 46.075643 64.573004L426.594043 177.202111c-9.024272 0-16.340426 7.316153-16.340426 16.340426s7.316153 16.340426 16.340426 16.340426l58.980221 0 0 195.603609c0 9.024272 7.316153 16.340426 16.340426 16.340426s16.340426-7.316153 16.340426-16.340426L518.255115 193.544715c0-3.403166-1.063217-6.721362-3.039319-9.490519l-74.767251-104.787881L440.448545 19.135728c0-9.024272-7.316153-16.340426-16.340426-16.340426L159.458587 2.795302c-9.024272 0-16.340426 7.316153-16.340426 16.340426l0 60.128409L68.348732 184.054196c-1.976102 2.769157-3.039319 6.087353-3.039319 9.490519L65.309413 605.859404C65.311591 614.883677 72.625566 622.19983 81.652017 622.19983zM175.799013 35.476153l231.968681 0 0 32.680851L175.799013 68.157004 175.799013 35.476153zM167.872817 100.837855l224.502196 0-54.489872 76.366434L113.382945 177.204289 167.872817 100.837855z" p-id="3041"></path><path d="M942.297872 622.202009c9.024272 0 16.340426-7.316153 16.340426-16.340426l0-27.151251c0-33.97937-21.475677-64.777804-53.439728-76.638774-8.46434-3.137362-17.865532 1.174332-21.005072 9.634315-3.13954 8.462162 1.174332 17.865532 9.634315 21.005072 19.21634 7.130962 32.129634 25.615251 32.129634 45.999387l0 27.151251C925.957447 614.885855 933.2736 622.202009 942.297872 622.202009z" p-id="3042"></path></svg>